# xmcd
#
# Track frame offsets:
#	150
#	3749
#	23172
#	45225
#	67086
#	83319
#	102769
#	107232
#	126550
#	142414
#	160939
#	181959
#	198991
#
# Disc length: 2837 seconds
#
# Revision: 2
# Processed by: cddbd v1.5.2PL0 Copyright (c) Steve Scherf et al.
# Submitted via: EZCDAudioConverter 7.1.0.1
#
DISCID=b00b130d
DTITLE=水木年华 - 生命狂想曲 CD1
DYEAR=2006
DGENRE=
TTITLE0=Intro 生命之源
TTITLE1=Forever Young
TTITLE2=完美世界(弦乐版)
TTITLE3=生命之诗
TTITLE4=秋日恋歌
TTITLE5=恋人岛
TTITLE6=命运之变奏
TTITLE7=Burning Till I Die
TTITLE8=琥珀
TTITLE9=耶路撒冷的星空
TTITLE10=完美世界(主题曲)
TTITLE11=嘿，不要叫醒我
TTITLE12=我们的一生
EXTD=
EXTT0=
EXTT1=
EXTT2=
EXTT3=
EXTT4=
EXTT5=
EXTT6=
EXTT7=
EXTT8=
EXTT9=
EXTT10=
EXTT11=
EXTT12=
PLAYORDER=
